<svg xmlns="http://www.w3.org/2000/svg" xmlns:xlink="http://www.w3.org/1999/xlink" width="65" height="59" fill="none" xmlns:v="https://vecta.io/nano"><g clip-path="url(#A)"><path d="M5.998 58.199c-1.164 0-2.196-.111-3.097-.333s-1.799-.639-2.692-1.252v-3.703h2.656l.293 1.902c.209.233.578.429 1.107.59s1.105.241 1.733.241c.436 0 .801-.053 1.095-.16s.516-.269.666-.477.225-.46.225-.754a1.39 1.39 0 0 0-.209-.754c-.142-.222-.372-.432-.69-.63s-.752-.405-1.292-.614c-1.222-.39-2.225-.789-3.009-1.196s-1.367-.883-1.749-1.436-.574-1.246-.574-2.07c0-.789.226-1.479.678-2.07s1.07-1.056 1.862-1.396 1.693-.519 2.712-.538c1.164-.027 2.192.09 3.085.349s1.686.646 2.371 1.168v3.438H8.622l-.401-1.91c-.222-.11-.539-.21-.951-.301a5.91 5.91 0 0 0-1.312-.14 3.33 3.33 0 0 0-1.063.156c-.31.104-.555.262-.734.473s-.269.469-.269.782a1.11 1.11 0 0 0 .225.682c.15.198.415.397.794.598s.905.428 1.585.69c1.621.476 2.851 1.071 3.691 1.785s1.256 1.688 1.256 2.913c0 .843-.229 1.559-.686 2.151s-1.094 1.042-1.91 1.352-1.765.465-2.849.465zm20.738-12.165l-9.067 8.855-1.753-2.006 7.109-7.005.008-.02-1.613-.108v-2.018h6.66v2.018l-1.344.285zm-6.825 11.96h-6.271v-2.006l1.48-.317v-9.609l-1.48-.313v-2.018h6.271v2.018l-1.352.313v9.609l1.352.317v2.006zm8.686 0h-6.877v-2.006l1.432-.108h.02l-3.43-4.694 2.399-2.126 4.995 6.68 1.46.249v2.006zm8.193 0h-6.395v-2.006l1.468-.317v-9.609l-1.468-.313v-2.018h1.468 5.26l3.45 9.396h.056l3.35-9.396h6.652v2.018l-1.481.313v9.609l1.481.317v2.006h-6.387v-2.006l1.537-.317v-1.858l.08-6.712-.06-.008-4.036 10.901h-2.7L34.97 47.218l-.068.012.237 6.11v2.331l1.653.317v2.006zm22.095.205c-1.164 0-2.196-.111-3.097-.333s-1.799-.639-2.692-1.252v-3.703h2.652l.297 1.902c.209.233.576.429 1.103.59s1.109.241 1.737.241c.436 0 .801-.053 1.095-.16s.516-.269.666-.477.225-.46.225-.754a1.39 1.39 0 0 0-.209-.754c-.142-.222-.372-.432-.69-.63s-.753-.405-1.296-.614c-1.22-.39-2.221-.789-3.005-1.196s-1.367-.883-1.749-1.436-.574-1.246-.574-2.07c0-.789.226-1.479.678-2.07s1.069-1.056 1.858-1.396 1.697-.519 2.716-.538c1.161-.027 2.189.09 3.085.349s1.684.646 2.371 1.168v3.438H61.51l-.401-1.91c-.222-.11-.539-.21-.951-.301s-.849-.14-1.312-.14c-.398 0-.753.052-1.063.156s-.555.262-.734.473-.269.469-.269.782a1.11 1.11 0 0 0 .225.682c.15.198.415.397.794.598s.905.428 1.585.69c1.621.476 2.85 1.071 3.687 1.785s1.26 1.688 1.26 2.913c0 .843-.229 1.559-.686 2.151s-1.094 1.042-1.91 1.352-1.765.465-2.849.465z" fill="#2d5ed2"/></g><g fill="#2d5ed2"><use xlink:href="#B"/><use xlink:href="#B" y="-3.209"/><path d="M62.145 9.074c.155.854-.776 1.397-1.397 1.708-.388.155-.078.776-.621 1.009-.466.155-1.164.233-1.553.233-.932-.078-1.164-1.087-2.174-.932-.932.155-1.863.543-2.717.854-1.009.776-2.096.466-2.407 1.941-.388 1.63-.155 3.804-.155 5.434 0 1.475.699 2.872.932 4.347.31 1.475.388 2.795 1.786 3.571 1.009.621 2.407.078 3.261.699.543.388 1.242 1.553.233 1.553l-3.571.078c-.621 0-1.553-1.009-1.941-1.553-1.553-1.863-3.493-4.192-4.658-6.366-.311-.543-.932-1.32-1.242-2.018-.078.155-.155.233-.233.388-.932 1.475-1.785 2.872-2.95 4.192-.543.543-2.717 2.95-1.242 3.571 1.242.543 2.639.466 3.261 1.863h-4.347c-1.242 0-2.639-2.407-1.863-3.571 1.164-1.708.932-4.425.776-6.366l-.699-1.786c-2.096 0-4.813.388-6.832.466.311 1.242.699 2.95.233 4.192-.31.854-1.32 1.863-1.164 2.795.233 1.397 1.009 2.407 2.484 2.562.621.078 1.164-.155 1.708.155 3.804 2.096-2.795 2.174-3.649 1.32-1.087-1.087-4.192-.932-4.347-2.717-.078-.776.388-1.553.388-2.329 0-1.708-1.242-3.183-2.407-4.27-.543-.543-1.553-1.32-2.251-1.863l-2.329 2.251c-3.105 2.562-6.288 2.407-10.014 3.028-2.096.311-2.95 1.242-3.028 3.261-.078 1.475 1.242 1.165 2.251 1.63.155.078 1.164 1.397.699 1.397-.854 0-4.114.466-4.27-.388-.233-1.397-1.63-1.708-.932-3.183.543-1.165.932-2.95.776-4.27-.155-1.164 1.397-.699 2.018-.621 1.242.233 1.863-.155 2.872-.776 1.165-.776 2.407-1.553 3.416-2.562 1.087-1.009 1.009-2.872 1.242-4.27-2.251 3.493-5.357 7.375-10.092 5.589-1.786-.699-3.261-2.251-3.416-4.27-.155-1.786.776-4.114 2.872-4.114a2.87 2.87 0 0 1 1.863.776c.543.621-.155 1.165-.699.621-1.475-1.32-2.717.466-2.717 1.941.078 4.58 6.133 4.037 7.996 1.009 2.096-3.416 2.717-6.987 6.211-9.471 4.037-2.795 7.918-1.786 12.499-1.397 2.096.155 4.115.078 6.211-.155 2.174-.233 3.804-1.164 5.822-1.708 2.096-.543 4.27-.388 6.366.078.776.155 1.941.776 2.717.543.466-.078 1.242-.466 1.63-.233-1.32-1.009.311-2.795 1.553-1.941 1.242.776.776 1.397 2.407 1.63 3.261.466 4.27 2.639 5.978 5.201.233.233.388 1.32-.543 1.242z"/></g><defs><clipPath id="A"><path fill="#fff" transform="translate(.209 43.544)" d="M0 0h64.121v14.657H0z"/></clipPath><path id="B" d="M63.608 37.926H.931a.72.72 0 0 0-.722.722v.16a.72.72 0 0 0 .722.722h62.677a.72.72 0 0 0 .722-.722v-.16a.72.72 0 0 0-.722-.722z"/></defs></svg>